<svg width="109" height="33" viewBox="0 0 109 33" fill="none" xmlns="http://www.w3.org/2000/svg">
<g id="App Store - eng">
<g id="App Store - eng_2">
<g id="Group">
<path id="Vector" d="M104.963 0H4.03704C1.80744 0 0 1.84683 0 4.125V28.875C0 31.1532 1.80744 33 4.03704 33H104.963C107.193 33 109 31.1532 109 28.875V4.125C109 1.84683 107.193 0 104.963 0Z" fill="black"/>
<path id="Vector_2" d="M104.963 0.66C105.862 0.66 106.725 1.02506 107.361 1.67487C107.997 2.32469 108.354 3.20602 108.354 4.125V28.875C108.354 29.794 107.997 30.6753 107.361 31.3251C106.725 31.9749 105.862 32.34 104.963 32.34H4.03704C3.13766 32.34 2.27512 31.9749 1.63916 31.3251C1.0032 30.6753 0.645926 29.794 0.645926 28.875V4.125C0.645926 3.20602 1.0032 2.32469 1.63916 1.67487C2.27512 1.02506 3.13766 0.66 4.03704 0.66H104.963ZM104.963 0H4.03704C2.96635 0 1.93951 0.434597 1.18242 1.20818C0.425329 1.98177 0 3.03098 0 4.125V28.875C0 29.969 0.425329 31.0182 1.18242 31.7918C1.93951 32.5654 2.96635 33 4.03704 33H104.963C106.034 33 107.06 32.5654 107.818 31.7918C108.575 31.0182 109 29.969 109 28.875V4.125C109 3.03098 108.575 1.98177 107.818 1.20818C107.06 0.434597 106.034 0 104.963 0Z" fill="#A6A6A6"/>
</g>
<g id="Group_2">
<g id="Group_3">
<g id="Group_4">
<path id="Vector_3" d="M25.9285 15.9327C25.9062 13.3992 27.9587 12.1666 28.0525 12.1092C26.8901 10.3775 25.0884 10.1409 24.4553 10.1221C22.9421 9.95934 21.4742 11.0473 20.7034 11.0473C19.9172 11.0473 18.7301 10.1378 17.4508 10.1645C15.8045 10.1904 14.2643 11.1644 13.4196 12.6768C11.6764 15.7605 12.9765 20.2922 14.6467 22.7848C15.4821 24.0055 16.4584 25.3686 17.7362 25.3206C18.9863 25.268 19.4533 24.5063 20.9619 24.5063C22.4566 24.5063 22.8951 25.3206 24.1983 25.29C25.54 25.268 26.3847 24.0637 27.1909 22.8319C28.1564 21.4328 28.5441 20.0548 28.5595 19.984C28.528 19.973 25.9539 18.9692 25.9285 15.9327Z" fill="white"/>
<path id="Vector_4" d="M23.4673 8.48277C24.1397 7.62361 24.5997 6.45473 24.472 5.26855C23.4988 5.31257 22.2818 5.95636 21.581 6.79667C20.9609 7.53714 20.407 8.75082 20.5501 9.89219C21.6433 9.97551 22.7657 9.32858 23.4673 8.48277Z" fill="white"/>
</g>
</g>
<g id="Group_5">
<path id="Vector_5" d="M44.0201 25.1455H42.273L41.316 22.0728H37.9895L37.0779 25.1455H35.377L38.6726 14.6846H40.7082L44.0201 25.1455ZM41.0275 20.7836L40.162 18.0521C40.0705 17.773 39.8989 17.1159 39.6458 16.0814H39.615C39.5143 16.5263 39.3519 17.1835 39.1288 18.0521L38.2788 20.7836H41.0275Z" fill="white"/>
<path id="Vector_6" d="M52.4958 21.2809C52.4958 22.5638 52.1566 23.5778 51.4781 24.3222C50.8703 24.9848 50.1156 25.3158 49.2148 25.3158C48.2424 25.3158 47.5438 24.9589 47.1184 24.2452H47.0876V28.2187H45.4475V20.0853C45.4475 19.2788 45.4267 18.4511 45.3867 17.6021H46.8292L46.9207 18.7977H46.9515C47.4985 17.8969 48.3285 17.4473 49.4425 17.4473C50.3133 17.4473 51.0403 17.7986 51.6219 18.5022C52.205 19.2065 52.4958 20.1325 52.4958 21.2809ZM50.8249 21.3422C50.8249 20.608 50.6634 20.0028 50.3387 19.5264C49.9841 19.0296 49.5079 18.7812 48.9109 18.7812C48.5062 18.7812 48.1385 18.9196 47.81 19.1923C47.4808 19.4675 47.2654 19.8267 47.1646 20.2716C47.1138 20.4791 47.0884 20.6489 47.0884 20.7825V22.0402C47.0884 22.5889 47.253 23.0519 47.5823 23.43C47.9116 23.8081 48.3393 23.9968 48.8655 23.9968C49.4833 23.9968 49.9641 23.7531 50.3079 23.2673C50.6526 22.7807 50.8249 22.1393 50.8249 21.3422Z" fill="white"/>
<path id="Vector_7" d="M60.9853 21.2809C60.9853 22.5638 60.646 23.5778 59.9668 24.3222C59.3598 24.9848 58.6051 25.3158 57.7042 25.3158C56.7318 25.3158 56.0333 24.9589 55.6087 24.2452H55.5779V28.2187H53.9377V20.0853C53.9377 19.2788 53.917 18.4511 53.877 17.6021H55.3194L55.4109 18.7977H55.4417C55.9879 17.8969 56.818 17.4473 57.9327 17.4473C58.8028 17.4473 59.5298 17.7986 60.1129 18.5022C60.6937 19.2065 60.9853 20.1325 60.9853 21.2809ZM59.3144 21.3422C59.3144 20.608 59.1521 20.0028 58.8274 19.5264C58.4728 19.0296 57.9981 18.7812 57.4004 18.7812C56.9949 18.7812 56.628 18.9196 56.2987 19.1923C55.9695 19.4675 55.7548 19.8267 55.654 20.2716C55.604 20.4791 55.5779 20.6489 55.5779 20.7825V22.0402C55.5779 22.5889 55.7425 23.0519 56.0702 23.43C56.3995 23.8073 56.8272 23.9968 57.355 23.9968C57.9727 23.9968 58.4535 23.7531 58.7974 23.2673C59.1421 22.7807 59.3144 22.1393 59.3144 21.3422Z" fill="white"/>
<path id="Vector_8" d="M70.4803 22.2119C70.4803 23.1017 70.1779 23.8257 69.571 24.3846C68.904 24.9953 67.9754 25.3003 66.7822 25.3003C65.6806 25.3003 64.7974 25.0834 64.1289 24.6487L64.5089 23.2519C65.229 23.6968 66.0191 23.92 66.8799 23.92C67.4977 23.92 67.9785 23.7769 68.3239 23.4924C68.6678 23.2078 68.8393 22.8258 68.8393 22.3495C68.8393 21.925 68.6978 21.5673 68.4139 21.2773C68.1316 20.9872 67.66 20.7176 67.0015 20.4684C65.209 19.7853 64.3135 18.7846 64.3135 17.4688C64.3135 16.6088 64.6274 15.9037 65.2559 15.355C65.8822 14.8056 66.7176 14.5312 67.7623 14.5312C68.6939 14.5312 69.4679 14.6971 70.0856 15.028L69.6756 16.3942C69.0986 16.0735 68.4462 15.9132 67.7162 15.9132C67.1392 15.9132 66.6884 16.0586 66.3653 16.3478C66.0922 16.6065 65.9552 16.9217 65.9552 17.2951C65.9552 17.7085 66.1114 18.0505 66.4253 18.3193C66.6984 18.5677 67.1946 18.8365 67.9147 19.1266C68.7955 19.489 69.4425 19.9127 69.8587 20.3984C70.2733 20.8827 70.4803 21.4887 70.4803 22.2119Z" fill="white"/>
<path id="Vector_9" d="M75.9021 18.8598H74.0942V22.5221C74.0942 23.4536 74.4127 23.919 75.0512 23.919C75.3443 23.919 75.5874 23.893 75.7797 23.8411L75.8251 25.1138C75.502 25.2372 75.0766 25.2993 74.5496 25.2993C73.9019 25.2993 73.3957 25.0973 73.0302 24.694C72.6664 24.29 72.4833 23.6124 72.4833 22.6605V18.8583H71.4062V17.6006H72.4833V16.2194L74.0942 15.7227V17.6006H75.9021V18.8598Z" fill="white"/>
<path id="Vector_10" d="M84.0588 21.3118C84.0588 22.4712 83.7342 23.4231 83.0864 24.1675C82.4071 24.9339 81.5055 25.316 80.3815 25.316C79.2984 25.316 78.436 24.9489 77.7928 24.2147C77.1497 23.4805 76.8281 22.5537 76.8281 21.4367C76.8281 20.2679 77.1589 19.3104 77.8228 18.566C78.4852 17.8208 79.3791 17.4482 80.5031 17.4482C81.5863 17.4482 82.4579 17.8153 83.1156 18.5503C83.7449 19.2633 84.0588 20.1838 84.0588 21.3118ZM82.3571 21.366C82.3571 20.6703 82.2117 20.0737 81.9171 19.5761C81.5732 18.974 81.0816 18.6737 80.4446 18.6737C79.7853 18.6737 79.2845 18.9748 78.9406 19.5761C78.646 20.0745 78.5006 20.6805 78.5006 21.3974C78.5006 22.0931 78.646 22.6897 78.9406 23.1865C79.2953 23.7886 79.7907 24.0889 80.43 24.0889C81.0562 24.0889 81.5478 23.7824 81.9024 23.1708C82.2048 22.6638 82.3571 22.0609 82.3571 21.366Z" fill="white"/>
<path id="Vector_11" d="M89.391 19.076C89.2287 19.0453 89.0556 19.0296 88.874 19.0296C88.2971 19.0296 87.8509 19.2521 87.537 19.6978C87.2639 20.0908 87.127 20.5876 87.127 21.1874V25.1452H85.4876L85.503 19.9776C85.503 19.1082 85.4822 18.3167 85.4414 17.6029H86.87L86.93 19.0461H86.9754C87.1485 18.5501 87.4216 18.1508 87.7955 17.8513C88.1609 17.5817 88.5555 17.4473 88.981 17.4473C89.1325 17.4473 89.2695 17.4583 89.391 17.4779V19.076Z" fill="white"/>
<path id="Vector_12" d="M96.7247 21.0173C96.7247 21.3175 96.7054 21.5707 96.6647 21.7774H91.7442C91.7634 22.5226 92.0012 23.0925 92.4581 23.4855C92.8728 23.8369 93.409 24.013 94.0675 24.013C94.796 24.013 95.4607 23.8943 96.0585 23.6561L96.3154 24.8195C95.6169 25.1307 94.7922 25.2856 93.8406 25.2856C92.6958 25.2856 91.7973 24.9413 91.1434 24.2535C90.491 23.5657 90.1641 22.6421 90.1641 21.4834C90.1641 20.346 90.4679 19.3988 91.0765 18.6433C91.7134 17.8368 92.5743 17.4336 93.6575 17.4336C94.7214 17.4336 95.5269 17.8368 96.0738 18.6433C96.507 19.284 96.7247 20.0763 96.7247 21.0173ZM95.1607 20.5826C95.1715 20.0858 95.0645 19.6566 94.8422 19.2942C94.5583 18.8281 94.1221 18.5954 93.5352 18.5954C92.9989 18.5954 92.5628 18.8226 92.2296 19.2785C91.9565 19.6409 91.7942 20.0756 91.7442 20.5818H95.1607V20.5826Z" fill="white"/>
</g>
<g id="Group_6">
<path id="Vector_13" d="M40.4858 8.24902C40.4858 9.17422 40.2142 9.87067 39.6719 10.3384C39.1695 10.7699 38.4556 10.9861 37.5309 10.9861C37.0724 10.9861 36.6801 10.9657 36.3516 10.9248V5.8696C36.7801 5.79885 37.2416 5.7627 37.7402 5.7627C38.621 5.7627 39.2849 5.95843 39.7326 6.34989C40.2342 6.79244 40.4858 7.42522 40.4858 8.24902ZM39.6357 8.27182C39.6357 7.67205 39.4803 7.2122 39.1695 6.89148C38.8587 6.57156 38.4048 6.4112 37.8071 6.4112C37.5532 6.4112 37.337 6.42849 37.1578 6.46465V10.3077C37.257 10.3234 37.4386 10.3305 37.7025 10.3305C38.3194 10.3305 38.7956 10.1552 39.1311 9.80464C39.4665 9.45406 39.6357 8.94311 39.6357 8.27182Z" fill="white"/>
<path id="Vector_14" d="M44.9933 9.05772C44.9933 9.62761 44.834 10.0945 44.5155 10.4608C44.1817 10.8374 43.7393 11.0252 43.187 11.0252C42.6546 11.0252 42.2307 10.8452 41.9145 10.4836C41.5991 10.1228 41.4414 9.6677 41.4414 9.11903C41.4414 8.5452 41.6037 8.07435 41.9299 7.70883C42.2561 7.34331 42.6946 7.16016 43.247 7.16016C43.7793 7.16016 44.207 7.34016 44.5309 7.70097C44.8386 8.05155 44.9933 8.50433 44.9933 9.05772ZM44.157 9.08444C44.157 8.74251 44.0847 8.4493 43.9409 8.20484C43.7716 7.90928 43.5308 7.7615 43.2177 7.7615C42.8939 7.7615 42.6477 7.90928 42.4784 8.20484C42.3338 8.4493 42.2623 8.74722 42.2623 9.09938C42.2623 9.44132 42.3346 9.73452 42.4784 9.97899C42.6531 10.2745 42.8962 10.4223 43.21 10.4223C43.5178 10.4223 43.7593 10.2722 43.9332 9.97113C44.0824 9.72194 44.157 9.42638 44.157 9.08444Z" fill="white"/>
<path id="Vector_15" d="M51.0375 7.23535L49.9028 10.9409H49.1643L48.6942 9.33179C48.575 8.93011 48.4781 8.53079 48.4027 8.13461H48.3881C48.3181 8.54179 48.2211 8.94033 48.0965 9.33179L47.5972 10.9409H46.8502L45.7832 7.23535H46.6117L47.0218 8.99692C47.121 9.41354 47.2026 9.8105 47.268 10.1862H47.2826C47.3426 9.87653 47.4418 9.48193 47.5818 9.00478L48.0965 7.23614H48.7535L49.2466 8.96705C49.3658 9.38917 49.4628 9.79557 49.5374 10.187H49.5597C49.6143 9.80579 49.6966 9.39939 49.8059 8.96705L50.2459 7.23614H51.0375V7.23535Z" fill="white"/>
<path id="Vector_16" d="M55.2159 10.9406H54.4096V8.81818C54.4096 8.16418 54.1665 7.83717 53.6788 7.83717C53.4395 7.83717 53.2465 7.92678 53.0964 8.10679C52.948 8.2868 52.8726 8.49904 52.8726 8.74193V10.9398H52.0663V8.29388C52.0663 7.96845 52.0563 7.6155 52.0371 7.23347H52.7456L52.7833 7.81281H52.8056C52.8995 7.6328 53.0395 7.48423 53.2234 7.36553C53.4419 7.22719 53.6865 7.15723 53.9542 7.15723C54.2927 7.15723 54.5743 7.26885 54.7981 7.49288C55.0766 7.76721 55.2159 8.17675 55.2159 8.72071V10.9406Z" fill="white"/>
<path id="Vector_17" d="M57.4402 10.9409H56.6348V5.53516H57.4402V10.9409Z" fill="white"/>
<path id="Vector_18" d="M62.1866 9.05772C62.1866 9.62761 62.0274 10.0945 61.7089 10.4608C61.375 10.8374 60.9319 11.0252 60.3803 11.0252C59.8472 11.0252 59.4233 10.8452 59.1079 10.4836C58.7925 10.1228 58.6348 9.6677 58.6348 9.11903C58.6348 8.5452 58.7971 8.07435 59.1233 7.70883C59.4495 7.34331 59.888 7.16016 60.4396 7.16016C60.9727 7.16016 61.3996 7.34016 61.7243 7.70097C62.032 8.05155 62.1866 8.50433 62.1866 9.05772ZM61.3496 9.08444C61.3496 8.74251 61.2773 8.4493 61.1335 8.20484C60.965 7.90928 60.7234 7.7615 60.4111 7.7615C60.0864 7.7615 59.8403 7.90928 59.6718 8.20484C59.5272 8.4493 59.4556 8.74722 59.4556 9.09938C59.4556 9.44132 59.5279 9.73452 59.6718 9.97899C59.8464 10.2745 60.0895 10.4223 60.4034 10.4223C60.7111 10.4223 60.9519 10.2722 61.1258 9.97113C61.2758 9.72194 61.3496 9.42638 61.3496 9.08444Z" fill="white"/>
<path id="Vector_19" d="M66.0885 10.9411H65.3646L65.3046 10.5143H65.2823C65.0346 10.8547 64.6815 11.0252 64.223 11.0252C63.8806 11.0252 63.6037 10.9128 63.3952 10.6896C63.206 10.4868 63.1113 10.2345 63.1113 9.93497C63.1113 9.48219 63.296 9.13711 63.6675 8.89815C64.0383 8.65918 64.5599 8.54206 65.2315 8.54756V8.47839C65.2315 7.99024 64.9807 7.74656 64.4784 7.74656C64.1207 7.74656 63.8052 7.83853 63.5329 8.0209L63.369 7.48008C63.706 7.26706 64.1222 7.16016 64.613 7.16016C65.5608 7.16016 66.0362 7.6711 66.0362 8.69298V10.0576C66.0362 10.4278 66.0539 10.7226 66.0885 10.9411ZM65.2515 9.6677V9.09624C64.3622 9.08051 63.9176 9.3297 63.9176 9.843C63.9176 10.0364 63.9683 10.181 64.0722 10.2777C64.176 10.3744 64.3084 10.4223 64.4661 10.4223C64.643 10.4223 64.8084 10.3649 64.9592 10.251C65.1107 10.1362 65.2038 9.99078 65.2385 9.81234C65.2469 9.77225 65.2515 9.72351 65.2515 9.6677Z" fill="white"/>
<path id="Vector_20" d="M70.6689 10.9409H69.9534L69.9157 10.3459H69.8934C69.665 10.7986 69.2757 11.025 68.7287 11.025C68.2917 11.025 67.9279 10.8497 67.6394 10.4992C67.3509 10.1486 67.207 9.69344 67.207 9.13455C67.207 8.53478 67.3632 8.04899 67.6771 7.67797C67.981 7.3321 68.3533 7.15917 68.7964 7.15917C69.2834 7.15917 69.6242 7.3266 69.818 7.66225H69.8334V5.53516H70.6404V9.94262C70.6404 10.3034 70.6497 10.6359 70.6689 10.9409ZM69.8334 9.37823V8.76038C69.8334 8.65348 69.8257 8.56701 69.8111 8.50098C69.7657 8.30289 69.668 8.13625 69.5196 8.00183C69.3695 7.86741 69.1888 7.79981 68.9803 7.79981C68.6795 7.79981 68.4441 7.92165 68.271 8.16612C68.0994 8.41058 68.0125 8.72265 68.0125 9.10389C68.0125 9.4702 68.0948 9.76733 68.2602 9.99608C68.4348 10.2398 68.6702 10.3616 68.9649 10.3616C69.2295 10.3616 69.4411 10.2602 69.6019 10.0566C69.7573 9.86873 69.8334 9.64235 69.8334 9.37823Z" fill="white"/>
<path id="Vector_21" d="M77.5655 9.05772C77.5655 9.62761 77.4063 10.0945 77.0878 10.4608C76.7539 10.8374 76.3124 11.0252 75.7592 11.0252C75.2276 11.0252 74.8038 10.8452 74.4868 10.4836C74.1714 10.1228 74.0137 9.6677 74.0137 9.11903C74.0137 8.5452 74.176 8.07435 74.5022 7.70883C74.8284 7.34331 75.2669 7.16016 75.82 7.16016C76.3516 7.16016 76.7801 7.34016 77.1032 7.70097C77.4109 8.05155 77.5655 8.50433 77.5655 9.05772ZM76.7301 9.08444C76.7301 8.74251 76.6578 8.4493 76.5139 8.20484C76.3439 7.90928 76.1039 7.7615 75.79 7.7615C75.4669 7.7615 75.2207 7.90928 75.0507 8.20484C74.9061 8.4493 74.8345 8.74722 74.8345 9.09938C74.8345 9.44132 74.9068 9.73452 75.0507 9.97899C75.2253 10.2745 75.4684 10.4223 75.7823 10.4223C76.09 10.4223 76.3324 10.2722 76.5062 9.97113C76.6547 9.72194 76.7301 9.42638 76.7301 9.08444Z" fill="white"/>
<path id="Vector_22" d="M81.8987 10.9406H81.0932V8.81818C81.0932 8.16418 80.8501 7.83717 80.3616 7.83717C80.1224 7.83717 79.9293 7.92678 79.78 8.10679C79.6308 8.2868 79.5562 8.49904 79.5562 8.74193V10.9398H78.7492V8.29388C78.7492 7.96845 78.7399 7.6155 78.7207 7.23347H79.4285L79.4662 7.81281H79.4885C79.5831 7.6328 79.7231 7.48423 79.9062 7.36553C80.1255 7.22719 80.3693 7.15723 80.6378 7.15723C80.9755 7.15723 81.2571 7.26885 81.481 7.49288C81.7602 7.76721 81.8987 8.17675 81.8987 8.72071V10.9406Z" fill="white"/>
<path id="Vector_23" d="M87.3259 7.8524H86.4381V9.65249C86.4381 10.11 86.5958 10.3387 86.9081 10.3387C87.0527 10.3387 87.1728 10.3261 87.2674 10.3002L87.2882 10.9251C87.1289 10.9864 86.9197 11.0171 86.6619 11.0171C86.3435 11.0171 86.0957 10.9181 85.9165 10.72C85.7365 10.5219 85.6472 10.1886 85.6472 9.72088V7.8524H85.1172V7.23534H85.6472V6.55618L86.4373 6.3125V7.23456H87.3251V7.8524H87.3259Z" fill="white"/>
<path id="Vector_24" d="M91.5929 10.9409H90.7859V8.83427C90.7859 8.17005 90.5428 7.83754 90.0558 7.83754C89.6819 7.83754 89.4265 8.03013 89.2865 8.4153C89.2627 8.49626 89.2488 8.59531 89.2488 8.71165V10.9401H88.4434V5.53516H89.2488V7.76837H89.2642C89.5181 7.36197 89.882 7.15917 90.3535 7.15917C90.6874 7.15917 90.9636 7.27079 91.1828 7.49482C91.4559 7.77387 91.5929 8.18891 91.5929 8.73759V10.9409Z" fill="white"/>
<path id="Vector_25" d="M95.9956 8.91332C95.9956 9.0611 95.9849 9.1853 95.9656 9.2867H93.5477C93.5585 9.65301 93.6739 9.93206 93.8977 10.1254C94.1024 10.2984 94.3663 10.3848 94.6894 10.3848C95.0471 10.3848 95.3733 10.3267 95.6671 10.2095L95.7933 10.7818C95.4494 10.9343 95.0448 11.0105 94.5763 11.0105C94.0147 11.0105 93.5723 10.8415 93.2523 10.5035C92.9307 10.1655 92.7715 9.71196 92.7715 9.14285C92.7715 8.58396 92.92 8.11861 93.2192 7.74759C93.5316 7.35141 93.9539 7.15332 94.487 7.15332C95.0086 7.15332 95.4048 7.35141 95.6725 7.74759C95.8887 8.06201 95.9956 8.45111 95.9956 8.91332ZM95.2263 8.7003C95.2325 8.45583 95.1794 8.24517 95.0702 8.06751C94.9301 7.83877 94.7171 7.724 94.4286 7.724C94.1655 7.724 93.9508 7.83562 93.787 8.05965C93.6531 8.23809 93.5739 8.45111 93.5477 8.7003H95.2263Z" fill="white"/>
</g>
</g>
</g>
</g>
</svg>
