<svg xmlns="http://www.w3.org/2000/svg" width="30" height="30" fill="none"><path stroke="#fff" stroke-linecap="round" stroke-linejoin="round" stroke-width="2" d="m5 7.5 7.634 5.765.003.002c.848.622 1.272.933 1.736 1.053.411.107.843.107 1.253 0 .465-.12.89-.432 1.74-1.055 0 0 4.897-3.758 7.634-5.765M3.75 19.75v-9.5c0-1.4 0-2.1.272-2.635.24-.47.622-.853 1.093-1.093C5.65 6.25 6.35 6.25 7.75 6.25h14.5c1.4 0 2.1 0 2.634.272.47.24.854.622 1.094 1.093.272.534.272 1.234.272 2.631v9.508c0 1.398 0 2.097-.272 2.63-.24.471-.623.854-1.094 1.094-.534.272-1.233.272-2.63.272H7.746c-1.397 0-2.097 0-2.631-.272a2.5 2.5 0 0 1-1.093-1.093c-.272-.535-.272-1.235-.272-2.635Z"/></svg>