<svg width="109" height="33" viewBox="0 0 109 33" fill="none" xmlns="http://www.w3.org/2000/svg">
<g id="Google Play - eng">
<g id="Google Play - eng_2">
<g id="Group">
<path id="Vector" d="M104.963 0H4.03704C1.80744 0 0 1.84683 0 4.125V28.875C0 31.1532 1.80744 33 4.03704 33H104.963C107.193 33 109 31.1532 109 28.875V4.125C109 1.84683 107.193 0 104.963 0Z" fill="black"/>
<path id="Vector_2" d="M104.963 0.66C105.862 0.66 106.725 1.02506 107.361 1.67487C107.997 2.32469 108.354 3.20602 108.354 4.125V28.875C108.354 29.794 107.997 30.6753 107.361 31.3251C106.725 31.9749 105.862 32.34 104.963 32.34H4.03704C3.13766 32.34 2.27512 31.9749 1.63916 31.3251C1.0032 30.6753 0.645926 29.794 0.645926 28.875V4.125C0.645926 3.20602 1.0032 2.32469 1.63916 1.67487C2.27512 1.02506 3.13766 0.66 4.03704 0.66H104.963ZM104.963 0H4.03704C2.96635 0 1.93951 0.434597 1.18242 1.20818C0.425329 1.98177 0 3.03098 0 4.125V28.875C0 29.969 0.425329 31.0182 1.18242 31.7918C1.93951 32.5654 2.96635 33 4.03704 33H104.963C106.034 33 107.06 32.5654 107.818 31.7918C108.575 31.0182 109 29.969 109 28.875V4.125C109 3.03098 108.575 1.98177 107.818 1.20818C107.06 0.434597 106.034 0 104.963 0Z" fill="#A6A6A6"/>
</g>
<g id="Group_2">
<path id="Vector_3" d="M55.0156 17.9444C54.3376 17.9476 53.6758 18.156 53.1136 18.5433C52.5514 18.9305 52.1141 19.4793 51.8569 20.1202C51.5996 20.7612 51.534 21.4657 51.6682 22.1447C51.8024 22.8238 52.1305 23.447 52.611 23.9357C53.0916 24.4244 53.703 24.7567 54.3682 24.8906C55.0334 25.0246 55.7226 24.9542 56.3486 24.6884C56.9747 24.4225 57.5097 23.9731 57.886 23.3969C58.2624 22.8206 58.4632 22.1434 58.4633 21.4506C58.4698 20.9869 58.385 20.5266 58.2139 20.0971C58.0428 19.6675 57.7888 19.2776 57.4671 18.9505C57.1454 18.6233 56.7626 18.3656 56.3415 18.1928C55.9203 18.0199 55.4694 17.9355 55.0156 17.9444ZM55.0156 23.5791C54.5987 23.6089 54.1826 23.5098 53.8214 23.2948C53.4603 23.0798 53.1708 22.7587 52.9907 22.3733C52.8105 21.988 52.7479 21.5561 52.8111 21.1339C52.8743 20.7118 53.0604 20.3188 53.3451 20.0061C53.6298 19.6934 53.9999 19.4754 54.4075 19.3805C54.815 19.2856 55.241 19.3182 55.6302 19.474C56.0194 19.6298 56.3537 19.9016 56.5897 20.2541C56.8256 20.6066 56.9524 21.0235 56.9534 21.4506C56.9664 21.7212 56.9262 21.9918 56.8353 22.2463C56.7444 22.5008 56.6045 22.7341 56.4239 22.9325C56.2433 23.1308 56.0256 23.2903 55.7837 23.4013C55.5419 23.5124 55.2807 23.5728 55.0156 23.5791ZM47.4987 17.9444C46.8203 17.946 46.1577 18.153 45.5944 18.5393C45.0312 18.9255 44.5926 19.4737 44.3341 20.1145C44.0757 20.7554 44.0089 21.4601 44.1422 22.1397C44.2755 22.8193 44.6029 23.4433 45.0832 23.9328C45.5634 24.4223 46.1748 24.7555 46.8402 24.8901C47.5057 25.0247 48.1952 24.9548 48.8218 24.6892C49.4483 24.4235 49.9838 23.9741 50.3605 23.3977C50.7372 22.8213 50.9382 22.1437 50.9382 21.4506C50.9448 20.9869 50.86 20.5266 50.6889 20.0971C50.5177 19.6675 50.2638 19.2776 49.9421 18.9505C49.6204 18.6233 49.2376 18.3656 48.8164 18.1928C48.3953 18.0199 47.9444 17.9355 47.4906 17.9444H47.4987ZM47.4987 23.5791C47.0815 23.6106 46.6647 23.513 46.3026 23.2991C45.9405 23.0851 45.6498 22.7648 45.4683 22.3796C45.2869 21.9945 45.2231 21.5625 45.2853 21.1399C45.3475 20.7172 45.5328 20.3235 45.8171 20.0099C46.1013 19.6964 46.4714 19.4775 46.8791 19.3819C47.2868 19.2862 47.7132 19.3182 48.1029 19.4737C48.4925 19.6291 48.8274 19.9008 49.0638 20.2534C49.3002 20.606 49.4272 21.0232 49.4284 21.4506C49.4414 21.7212 49.4012 21.9918 49.3103 22.2463C49.2193 22.5008 49.0794 22.7341 48.8988 22.9325C48.7182 23.1308 48.5006 23.2903 48.2587 23.4013C48.0168 23.5124 47.7557 23.5728 47.4906 23.5791H47.4987ZM38.5445 19.0251V20.5101H42.0325C41.9778 21.2095 41.6933 21.8695 41.2251 22.3829C40.8761 22.7461 40.4566 23.0306 39.9936 23.2181C39.5305 23.4057 39.0342 23.4921 38.5364 23.4719C37.5086 23.4719 36.5228 23.0546 35.796 22.312C35.0692 21.5694 34.6609 20.5621 34.6609 19.5119C34.6609 18.4616 35.0692 17.4544 35.796 16.7117C36.5228 15.9691 37.5086 15.5519 38.5364 15.5519C39.5197 15.5355 40.4692 15.9182 41.1767 16.6161L42.2021 15.5684C41.7245 15.0742 41.1547 14.683 40.5264 14.418C39.8981 14.153 39.2242 14.0196 38.5445 14.0256C37.8267 13.9971 37.1107 14.1169 36.4393 14.3779C35.7679 14.6388 35.155 15.0356 34.6373 15.5444C34.1195 16.0533 33.7077 16.6636 33.4263 17.339C33.145 18.0143 33 18.7408 33 19.4747C33 20.2087 33.145 20.9351 33.4263 21.6105C33.7077 22.2858 34.1195 22.8962 34.6373 23.405C35.155 23.9138 35.7679 24.3106 36.4393 24.5716C37.1107 24.8326 37.8267 24.9524 38.5445 24.9239C39.2356 24.9558 39.9254 24.8361 40.5674 24.5728C41.2095 24.3095 41.7889 23.9088 42.2667 23.3976C43.1126 22.448 43.5642 21.1996 43.5262 19.9161C43.5288 19.6034 43.5018 19.2912 43.4455 18.9839L38.5445 19.0251ZM75.1281 20.1801C74.9176 19.5471 74.5238 18.9944 73.999 18.5952C73.4742 18.1959 72.843 17.969 72.1892 17.9444C71.7475 17.9435 71.3104 18.0352 70.9048 18.2138C70.4992 18.3923 70.1337 18.654 69.8311 18.9827C69.5284 19.3113 69.2948 19.6998 69.1449 20.1243C68.995 20.5488 68.9319 21.0002 68.9596 21.4506C68.9497 21.9117 69.031 22.3701 69.1984 22.7984C69.3659 23.2267 69.6161 23.6161 69.9341 23.9434C70.2522 24.2707 70.6315 24.5291 71.0495 24.7032C71.4674 24.8774 71.9155 24.9636 72.3668 24.9569C72.9316 24.96 73.4883 24.8199 73.9871 24.5492C74.4859 24.2786 74.9113 23.8857 75.225 23.4059L74.0543 22.5809C73.8796 22.8785 73.6322 23.1247 73.3364 23.2953C73.0406 23.466 72.7065 23.5552 72.3668 23.5544C72.0171 23.568 71.6714 23.4738 71.3748 23.284C71.0781 23.0942 70.8443 22.8176 70.7035 22.4901L75.2977 20.5514L75.1281 20.1801ZM70.4452 21.3516C70.4288 21.0964 70.4624 20.8405 70.5441 20.5988C70.6258 20.357 70.7538 20.1344 70.9207 19.9438C71.0876 19.7533 71.2901 19.5987 71.5162 19.4891C71.7424 19.3795 71.9876 19.3171 72.2376 19.3056C72.4981 19.2881 72.7578 19.3491 72.9846 19.4811C73.2114 19.6131 73.3953 19.8103 73.5133 20.0481L70.4452 21.3516ZM66.715 24.7506H68.2248V14.4381H66.715V24.7506ZM64.2443 18.7281H64.1878C63.9602 18.4682 63.6815 18.2603 63.3698 18.1181C63.0581 17.9759 62.7205 17.9027 62.3792 17.9031C61.4968 17.9468 60.6648 18.3358 60.0554 18.9893C59.4461 19.6428 59.1062 20.5109 59.1062 21.4135C59.1062 22.3161 59.4461 23.1841 60.0554 23.8377C60.6648 24.4912 61.4968 24.8801 62.3792 24.9239C62.7213 24.9297 63.0606 24.8589 63.3731 24.7164C63.6855 24.5738 63.9636 24.3631 64.1878 24.0989H64.2362V24.6021C64.2362 25.9469 63.5338 26.6646 62.4034 26.6646C62.0269 26.6556 61.6616 26.5323 61.3539 26.3105C61.0462 26.0887 60.8101 25.7783 60.6756 25.4189L59.3595 25.9799C59.6072 26.5956 60.0293 27.1217 60.5717 27.4906C61.114 27.8596 61.7519 28.0546 62.4034 28.0506C64.1716 28.0506 65.633 26.9864 65.633 24.3959V18.1506H64.2443V18.7281ZM62.5164 23.5791C61.9956 23.5322 61.5109 23.2877 61.1578 22.8937C60.8047 22.4997 60.6088 21.9848 60.6088 21.4506C60.6088 20.9164 60.8047 20.4015 61.1578 20.0075C61.5109 19.6136 61.9956 19.369 62.5164 19.3221C62.7747 19.3356 63.0276 19.4019 63.2604 19.5168C63.4932 19.6318 63.7012 19.7932 63.872 19.9916C64.0428 20.1899 64.173 20.4212 64.2549 20.6718C64.3369 20.9224 64.369 21.1872 64.3493 21.4506C64.3713 21.7152 64.3406 21.9816 64.259 22.2337C64.1774 22.4858 64.0466 22.7183 63.8745 22.9173C63.7024 23.1163 63.4926 23.2775 63.2578 23.3912C63.023 23.505 62.768 23.5689 62.5084 23.5791H62.5164ZM82.201 14.4381H78.5919V24.7506H80.1018V20.8401H82.2091C82.6394 20.8717 83.0715 20.8124 83.4784 20.6658C83.8852 20.5193 84.2582 20.2886 84.574 19.9883C84.8898 19.688 85.1417 19.3244 85.3139 18.9202C85.4861 18.516 85.575 18.0799 85.575 17.6391C85.575 17.1983 85.4861 16.7622 85.3139 16.358C85.1417 15.9538 84.8898 15.5903 84.574 15.2899C84.2582 14.9896 83.8852 14.759 83.4784 14.6124C83.0715 14.4659 82.6394 14.4065 82.2091 14.4381H82.201ZM82.201 19.3881H80.0937V15.8736H82.2333C82.6927 15.8736 83.1332 16.0601 83.458 16.3919C83.7828 16.7238 83.9652 17.1739 83.9652 17.6432C83.9652 18.1126 83.7828 18.5627 83.458 18.8945C83.1332 19.2264 82.6927 19.4129 82.2333 19.4129L82.201 19.3881ZM91.5104 17.9031C90.9608 17.8695 90.4135 18.0008 89.9358 18.2807C89.4582 18.5607 89.0709 18.9771 88.8218 19.4789L90.1621 20.0481C90.2942 19.7992 90.4943 19.595 90.738 19.4603C90.9817 19.3255 91.2585 19.266 91.5347 19.2891C91.7263 19.2662 91.9205 19.2826 92.106 19.3372C92.2914 19.3919 92.4643 19.4837 92.6146 19.6073C92.7649 19.731 92.8896 19.884 92.9815 20.0574C93.0733 20.2308 93.1304 20.4212 93.1495 20.6174V20.7246C92.6645 20.4623 92.1237 20.3262 91.575 20.3286C90.1298 20.3286 88.6684 21.1536 88.6684 22.6469C88.6826 22.9653 88.7592 23.2775 88.8936 23.5651C89.028 23.8528 89.2175 24.1099 89.4509 24.3214C89.6842 24.533 89.9567 24.6945 90.2522 24.7966C90.5477 24.8986 90.8602 24.9391 91.1713 24.9156C91.5516 24.9435 91.9321 24.8663 92.2731 24.6921C92.614 24.5179 92.9028 24.2532 93.1091 23.9256H93.1576V24.7506H94.6109V20.7824C94.6109 18.9756 93.2706 17.9279 91.5508 17.9279L91.5104 17.9031ZM91.3247 23.5544C90.8322 23.5544 90.1459 23.2986 90.1459 22.6799C90.1459 21.8549 91.0018 21.5826 91.7607 21.5826C92.2404 21.5705 92.7144 21.6902 93.1333 21.9291C93.0828 22.3758 92.8761 22.7887 92.5512 23.0919C92.2262 23.3951 91.805 23.5682 91.3651 23.5791L91.3247 23.5544ZM99.9075 18.1506L98.1796 22.6221H98.1312L96.3387 18.1506H94.7239L97.4126 24.4041L95.8785 27.8774H97.453L101.587 18.1506H99.9075ZM86.335 24.7506H87.8448V14.4381H86.335V24.7506Z" fill="white"/>
<g id="Vector_4">
<path d="M38.236 8.49995C38.2497 8.80255 38.2031 9.10484 38.0991 9.38848C37.995 9.67212 37.8355 9.93118 37.6305 10.1499C37.4015 10.393 37.125 10.584 36.8189 10.7105C36.5128 10.837 36.1841 10.8962 35.8542 10.8842C35.3536 10.8802 34.8652 10.7253 34.4504 10.439C34.0356 10.1526 33.7127 9.74759 33.5221 9.27455C33.3316 8.80151 33.2819 8.28154 33.3794 7.77979C33.4768 7.27805 33.717 6.81683 34.0698 6.45395C34.3017 6.21204 34.5797 6.02133 34.8866 5.89362C35.1935 5.76591 35.5229 5.7039 35.8542 5.71145C36.1955 5.71029 36.5335 5.78047 36.8473 5.9177C37.1394 6.03811 37.3995 6.22753 37.6062 6.47045L37.1783 6.9077C37.0172 6.71184 36.8136 6.55696 36.5838 6.4553C36.354 6.35364 36.1042 6.30799 35.8542 6.32195C35.602 6.32068 35.3521 6.37147 35.1196 6.47126C34.8871 6.57106 34.6767 6.7178 34.501 6.9027C34.3253 7.08759 34.188 7.30683 34.0972 7.54727C34.0065 7.78771 33.9642 8.0444 33.9729 8.30195C33.9676 8.68651 34.0739 9.06406 34.2784 9.38696C34.4828 9.70987 34.7763 9.96366 35.1218 10.1163C35.4673 10.269 35.8493 10.3137 36.2196 10.2448C36.5899 10.1759 36.9319 9.9965 37.2025 9.7292C37.451 9.45409 37.5943 9.09684 37.6062 8.7227H35.8542V8.1287H38.2037C38.2253 8.25122 38.2361 8.37546 38.236 8.49995ZM41.9339 6.43745H39.7539V8.00495H41.7402V8.59895H39.7539V10.1664H41.9339V10.7769H39.108V5.82695H41.9339V6.43745ZM44.5822 10.7769H43.9605V6.43745H42.6041V5.82695H45.971V6.43745H44.5822V10.7769ZM48.3448 10.7769V5.82695H48.9665V10.7769H48.3448ZM51.7278 10.7769H51.1061V6.43745H49.7497V5.82695H53.0762V6.43745H51.7278V10.7769ZM59.382 10.1334C58.91 10.6131 58.2714 10.8823 57.6057 10.8823C56.9401 10.8823 56.3014 10.6131 55.8294 10.1334C55.3706 9.63723 55.115 8.98046 55.115 8.29782C55.115 7.61519 55.3706 6.95842 55.8294 6.4622C56.0621 6.22274 56.3388 6.03268 56.6437 5.90299C56.9485 5.77329 57.2755 5.70652 57.6057 5.70652C57.936 5.70652 58.2629 5.77329 58.5678 5.90299C58.8726 6.03268 59.1494 6.22274 59.382 6.4622C59.8426 6.95747 60.0995 7.6146 60.0995 8.29782C60.0995 8.98105 59.8426 9.63818 59.382 10.1334ZM56.2896 9.72095C56.6392 10.0766 57.1124 10.2763 57.6057 10.2763C58.099 10.2763 58.5723 10.0766 58.9218 9.72095C59.2668 9.33239 59.4578 8.82656 59.4578 8.30195C59.4578 7.77734 59.2668 7.27151 58.9218 6.88295C58.5723 6.52727 58.099 6.32758 57.6057 6.32758C57.1124 6.32758 56.6392 6.52727 56.2896 6.88295C55.9447 7.27151 55.7536 7.77734 55.7536 8.30195C55.7536 8.82656 55.9447 9.33239 56.2896 9.72095ZM60.9726 10.7769V5.82695H61.7316L64.0892 9.6797V5.82695H64.7109V10.7769H64.065L61.6024 6.7427V10.7769H60.9726Z" fill="white"/>
<path fill-rule="evenodd" clip-rule="evenodd" d="M57.6057 5.78902C57.2862 5.78902 56.9697 5.85364 56.6747 5.97915C56.38 6.10453 56.1124 6.2882 55.8874 6.51959C55.4432 7.00041 55.1958 7.6366 55.1958 8.29782C55.1958 8.95896 55.4432 9.59507 55.8873 10.0759C56.3441 10.5395 56.9618 10.7998 57.6057 10.7998C58.2497 10.7998 58.8675 10.5395 59.3243 10.0758C59.7701 9.59592 60.0187 8.95951 60.0187 8.29782C60.0187 7.63606 59.7701 6.99956 59.3241 6.5197C59.0991 6.28826 58.8315 6.10455 58.5367 5.97915C58.2417 5.85364 57.9253 5.78902 57.6057 5.78902ZM56.6126 5.82683C56.9273 5.69295 57.2648 5.62402 57.6057 5.62402C57.9466 5.62402 58.2841 5.69295 58.5988 5.82683C58.9135 5.9607 59.1992 6.15689 59.4393 6.40407L59.4406 6.40535C59.9154 6.91596 60.1802 7.59344 60.1802 8.29782C60.1802 9.0022 59.9154 9.67967 59.4406 10.1903L59.439 10.192C58.9518 10.687 58.2927 10.9648 57.6057 10.9648C56.9187 10.9648 56.2596 10.6869 55.7725 10.1919L55.7707 10.1901C55.2978 9.6786 55.0343 9.00153 55.0343 8.29782C55.0343 7.59412 55.2978 6.91708 55.7707 6.40554L55.7721 6.40406C56.0123 6.15687 56.2979 5.9607 56.6126 5.82683ZM35.8524 5.79393C35.5321 5.78663 35.2138 5.84657 34.9171 5.97003C34.6204 6.09348 34.3516 6.27784 34.1275 6.51168L34.1271 6.51209C33.7854 6.86346 33.5529 7.31003 33.4586 7.79585C33.3642 8.28167 33.4123 8.78513 33.5968 9.24315C33.7813 9.70117 34.0939 10.0934 34.4956 10.3706C34.8973 10.6479 35.3701 10.7978 35.8548 10.8017L35.857 10.8017C36.1757 10.8133 36.4931 10.7562 36.7886 10.634C37.0841 10.5119 37.3511 10.3275 37.5722 10.0928C37.7697 9.88214 37.9232 9.63265 38.0235 9.35951C38.1237 9.08634 38.1686 8.7952 38.1554 8.50377L38.236 8.49995L38.1553 8.49991C38.1553 8.40327 38.1485 8.30679 38.135 8.2112H35.9349V8.6402H37.6897L37.6869 8.72539C37.6743 9.11933 37.5235 9.49548 37.2619 9.78515L37.2587 9.78861C36.9767 10.0672 36.62 10.2542 36.234 10.326C35.848 10.3978 35.4499 10.3512 35.0897 10.1921C34.7296 10.0329 34.4237 9.76836 34.2106 9.43178C33.9978 9.09575 33.887 8.70295 33.8922 8.30279C33.8834 8.03482 33.9275 7.76777 34.0219 7.51759C34.1166 7.26679 34.2598 7.0381 34.4431 6.84523C34.6263 6.65236 34.8458 6.49929 35.0883 6.3952C35.3301 6.29142 35.5899 6.23845 35.8522 6.23944C36.1139 6.2252 36.3753 6.27317 36.6159 6.37959C36.8303 6.47442 37.0229 6.61337 37.1819 6.78741L37.4949 6.46759C37.3053 6.26177 37.0741 6.10015 36.8171 5.99421L36.8155 5.99356C36.5118 5.86076 36.1848 5.79282 35.8544 5.79395L35.8524 5.79393ZM38.3168 8.49805C38.3307 8.81118 38.2824 9.12394 38.1747 9.41745C38.0667 9.71155 37.9014 9.98018 37.6888 10.207C37.4519 10.4584 37.1658 10.6561 36.8492 10.787C36.5329 10.9177 36.1933 10.9789 35.8524 10.9667C35.3363 10.9623 34.8329 10.8026 34.4052 10.5073C33.9772 10.2119 33.644 9.794 33.4475 9.30595C33.2509 8.81789 33.1997 8.28142 33.3002 7.76374C33.4007 7.24616 33.6484 6.77038 34.0123 6.39601C34.2519 6.14614 34.5391 5.94915 34.8562 5.81721C35.173 5.68537 35.5129 5.6213 35.8549 5.62894C36.2067 5.62789 36.5549 5.70022 36.8783 5.84151C37.1819 5.96681 37.4523 6.16378 37.6672 6.41632L37.7166 6.47438L37.1732 7.02964L37.1165 6.96079C36.9634 6.77472 36.7701 6.62758 36.5518 6.53101C36.3334 6.43443 36.0961 6.39106 35.8586 6.40432L35.8538 6.40459C35.6124 6.40338 35.3734 6.45183 35.1509 6.54733C34.9284 6.64282 34.727 6.78324 34.5589 6.96016C34.3908 7.13709 34.2594 7.34688 34.1726 7.57696C34.0857 7.80703 34.0453 8.05266 34.0536 8.2991L34.0537 8.30311C34.0487 8.67137 34.1504 9.03292 34.3462 9.34215C34.542 9.65137 34.823 9.89441 35.1538 10.0406C35.4847 10.1868 35.8505 10.2296 36.2051 10.1636C36.559 10.0978 36.8859 9.92659 37.1448 9.67152C37.3602 9.4322 37.4918 9.12752 37.5204 8.8052H35.7734V8.0462H38.2713L38.2832 8.11411C38.3055 8.24083 38.3167 8.36931 38.3168 8.49805ZM39.0273 5.74445H42.0147V6.51995H39.8347V7.92245H41.8209V8.68145H39.8347V10.0839H42.0147V10.8594H39.0273V5.74445ZM39.1888 5.90945V10.6944H41.8532V10.2489H39.6732V8.51645H41.6594V8.08745H39.6732V6.35495H41.8532V5.90945H39.1888ZM42.5234 5.74445H46.0517V6.51995H44.663V10.8594H43.8798V6.51995H42.5234V5.74445ZM42.6848 5.90945V6.35495H44.0413V10.6944H44.5015V6.35495H45.8902V5.90945H42.6848ZM48.264 5.74445H49.0472V10.8594H48.264V5.74445ZM48.4255 5.90945V10.6944H48.8857V5.90945H48.4255ZM49.6689 5.74445H53.1569V6.51995H51.8085V10.8594H51.0254V6.51995H49.6689V5.74445ZM49.8304 5.90945V6.35495H51.1868V10.6944H51.6471V6.35495H52.9954V5.90945H49.8304ZM60.8919 5.74445H61.7763L64.0085 9.39214V5.74445H64.7917V10.8594H64.0202L61.6831 7.03086V10.8594H60.8919V5.74445ZM61.0534 5.90945V10.6944H61.5217V6.45454L64.1098 10.6944H64.6302V5.90945H64.17V9.96725L61.6868 5.90945H61.0534ZM56.2327 6.82449C56.5974 6.45342 57.0911 6.24508 57.6057 6.24508C58.1204 6.24508 58.6141 6.45342 58.9788 6.82449L58.9817 6.82745C59.3401 7.23118 59.5386 7.75685 59.5386 8.30195C59.5386 8.84705 59.34 9.37264 58.9816 9.77638L58.9788 9.77948C58.6142 10.1506 58.1204 10.3588 57.6057 10.3588C57.0911 10.3588 56.5974 10.1505 56.2327 9.7794L56.2896 9.72095L56.2298 9.77638C55.8714 9.37264 55.6729 8.84705 55.6729 8.30195C55.6729 7.75685 55.8714 7.23126 56.2298 6.82752L56.2327 6.82449ZM56.3481 9.66397C56.6824 10.0033 57.1345 10.1938 57.6057 10.1938C58.077 10.1938 58.5291 10.0033 58.8634 9.66397C59.194 9.2908 59.3771 8.80537 59.3771 8.30195C59.3771 7.79853 59.194 7.3131 58.8634 6.93992C58.5291 6.60057 58.077 6.41008 57.6057 6.41008C57.1345 6.41008 56.6824 6.60057 56.3481 6.93992C56.0175 7.3131 55.8344 7.79852 55.8344 8.30195C55.8344 8.80537 56.0175 9.2908 56.3481 9.66397Z" fill="white"/>
</g>
<g id="Group 2">
<path id="Vector_5" d="M8.42899 6.22084C8.16583 6.5435 8.033 6.95657 8.05758 7.37584V25.6248C8.033 26.0441 8.16583 26.4572 8.42899 26.7798L8.48551 26.8376L18.4893 16.6241V16.3848L8.48551 6.16309L8.42899 6.22084Z" fill="url(#paint0_linear_340_6562)"/>
<path id="Vector_6" d="M21.7986 20.0307L18.4883 16.6235V16.3843L21.7986 12.9688L21.8713 13.01L25.8357 15.3118C26.9661 15.9635 26.9661 17.036 25.8357 17.696L21.8875 19.9895L21.7986 20.0307Z" fill="url(#paint1_linear_340_6562)"/>
<path id="Vector_7" d="M21.8953 19.9815L18.488 16.5L8.42773 26.7795C8.65814 26.9865 8.95206 27.1047 9.2587 27.1137C9.56534 27.1227 9.86545 27.022 10.1071 26.829L21.9034 19.9815" fill="url(#paint2_linear_340_6562)"/>
<path id="Vector_8" d="M21.8955 13.0185L10.0993 6.171C9.85763 5.97796 9.55753 5.87726 9.25089 5.8863C8.94425 5.89534 8.65033 6.01355 8.41992 6.2205L18.4883 16.5L21.8955 13.0185Z" fill="url(#paint3_linear_340_6562)"/>
<path id="Vector_9" opacity="0.2" d="M21.7984 19.9072L10.0991 26.7135C9.86596 26.8916 9.58272 26.9878 9.29166 26.9878C9.0006 26.9878 8.71736 26.8916 8.48425 26.7135L8.42773 26.7712L8.48425 26.829C8.71683 27.0083 9.00028 27.1054 9.29166 27.1054C9.58304 27.1054 9.86649 27.0083 10.0991 26.829L21.8953 19.9815L21.7984 19.9072Z" fill="black"/>
<path id="Vector_10" opacity="0.12" d="M8.42899 26.664C8.16583 26.3413 8.033 25.9283 8.05758 25.509V25.6327C8.033 26.052 8.16583 26.4651 8.42899 26.7877L8.48551 26.73L8.42899 26.664ZM25.8367 17.5725L21.7997 19.9073L21.8723 19.9815L25.8367 17.688C26.0616 17.58 26.2547 17.4133 26.3965 17.2048C26.5382 16.9962 26.6237 16.7531 26.6441 16.5C26.5987 16.7299 26.5023 16.9462 26.3623 17.1321C26.2224 17.318 26.0425 17.4687 25.8367 17.5725Z" fill="black"/>
<path id="Vector_11" opacity="0.25" d="M10.0996 6.28651L25.836 15.4275C26.0419 15.5313 26.2217 15.682 26.3617 15.8679C26.5016 16.0538 26.598 16.2701 26.6434 16.5C26.623 16.2469 26.5376 16.0038 26.3958 15.7952C26.254 15.5867 26.061 15.42 25.836 15.312L10.0996 6.17101C8.96927 5.51926 8.04883 6.06376 8.04883 7.38376V7.50751C8.07305 6.17926 8.97735 5.63476 10.0996 6.28651Z" fill="white"/>
</g>
</g>
</g>
</g>
<defs>
<linearGradient id="paint0_linear_340_6562" x1="17.6011" y1="7.18609" x2="3.76085" y2="20.7312" gradientUnits="userSpaceOnUse">
<stop stop-color="#00A0FF"/>
<stop offset="0.01" stop-color="#00A1FF"/>
<stop offset="0.26" stop-color="#00BEFF"/>
<stop offset="0.51" stop-color="#00D2FF"/>
<stop offset="0.76" stop-color="#00DFFF"/>
<stop offset="1" stop-color="#00E3FF"/>
</linearGradient>
<linearGradient id="paint1_linear_340_6562" x1="27.3132" y1="16.4997" x2="7.78206" y2="16.4997" gradientUnits="userSpaceOnUse">
<stop stop-color="#FFE000"/>
<stop offset="0.41" stop-color="#FFBD00"/>
<stop offset="0.78" stop-color="#FFA500"/>
<stop offset="1" stop-color="#FF9C00"/>
</linearGradient>
<linearGradient id="paint2_linear_340_6562" x1="20.0463" y1="18.3975" x2="1.27387" y2="36.7616" gradientUnits="userSpaceOnUse">
<stop stop-color="#FF3A44"/>
<stop offset="1" stop-color="#C31162"/>
</linearGradient>
<linearGradient id="paint3_linear_340_6562" x1="5.89274" y1="0.148504" x2="14.2728" y2="8.34986" gradientUnits="userSpaceOnUse">
<stop stop-color="#32A071"/>
<stop offset="0.07" stop-color="#2DA771"/>
<stop offset="0.48" stop-color="#15CF74"/>
<stop offset="0.8" stop-color="#06E775"/>
<stop offset="1" stop-color="#00F076"/>
</linearGradient>
</defs>
</svg>
