<svg xmlns="http://www.w3.org/2000/svg" width="30" height="30" fill="none"><rect width="30" height="30" fill="#fff" rx="15"/><path fill="#4285F4" fill-rule="evenodd" d="M24.255 15.221c0-.691-.063-1.356-.178-1.994h-9.183v3.771h5.248a4.485 4.485 0 0 1-1.946 2.943v2.447h3.151c1.844-1.698 2.907-4.197 2.907-7.167Z" clip-rule="evenodd"/><path fill="#34A853" fill-rule="evenodd" d="M14.895 24.75c2.632 0 4.84-.873 6.452-2.362l-3.15-2.447c-.874.585-1.99.931-3.302.931-2.54 0-4.69-1.715-5.456-4.02H6.182v2.527a9.746 9.746 0 0 0 8.713 5.371Z" clip-rule="evenodd"/><path fill="#FBBC05" fill-rule="evenodd" d="M9.439 16.853A5.86 5.86 0 0 1 9.133 15c0-.642.111-1.267.306-1.852v-2.526H6.182A9.746 9.746 0 0 0 5.145 15c0 1.573.376 3.063 1.037 4.379l3.257-2.526Z" clip-rule="evenodd"/><path fill="#EA4335" fill-rule="evenodd" d="M14.895 9.128c1.431 0 2.716.492 3.727 1.458l2.796-2.797C19.73 6.216 17.523 5.25 14.895 5.25a9.746 9.746 0 0 0-8.713 5.371l3.257 2.527c.767-2.305 2.916-4.02 5.456-4.02Z" clip-rule="evenodd"/></svg>