<svg xmlns="http://www.w3.org/2000/svg" width="16" height="17" fill="none"><path stroke="#9D9D9D" stroke-linecap="round" stroke-linejoin="round" stroke-width="2" d="M12.667 7.834a4.667 4.667 0 0 0-9.334 0m7.334 2.333V11.5c0 .31 0 .465.025.594.105.529.519.942 1.048 1.048.129.025.284.025.593.025.31 0 .465 0 .594-.025a1.333 1.333 0 0 0 1.047-1.048C14 11.965 14 11.81 14 11.5v-1.333c0-.31 0-.465-.026-.594a1.333 1.333 0 0 0-1.047-1.047c-.129-.026-.284-.026-.594-.026s-.464 0-.593.026a1.333 1.333 0 0 0-1.048 1.047c-.025.129-.025.284-.025.594Zm-5.334 0V11.5c0 .31 0 .465-.025.594a1.334 1.334 0 0 1-1.048 1.048c-.129.025-.284.025-.593.025-.31 0-.465 0-.594-.025a1.334 1.334 0 0 1-1.047-1.048C2 11.965 2 11.81 2 11.5v-1.333c0-.31 0-.465.026-.594a1.333 1.333 0 0 1 1.047-1.047c.129-.026.284-.026.594-.026s.464 0 .593.026c.529.105.942.518 1.048 1.047.025.129.025.284.025.594Z"/></svg>