<svg xmlns="http://www.w3.org/2000/svg" width="21" height="19" fill="none"><path stroke="#ECECEC" stroke-linecap="round" stroke-linejoin="round" stroke-width="2" d="m4.426 16.92 1.524-1.219.011-.008c.318-.255.478-.383.657-.474.16-.082.331-.142.508-.178.199-.041.406-.041.822-.041h8.681c1.118 0 1.678 0 2.105-.218a2 2 0 0 0 .874-.874c.218-.428.218-.986.218-2.104V4.197c0-1.118 0-1.678-.218-2.105a2.001 2.001 0 0 0-.874-.874C18.306 1 17.746 1 16.626 1h-11.6c-1.12 0-1.68 0-2.108.218a1.999 1.999 0 0 0-.874.874c-.218.428-.218.988-.218 2.108v11.471c0 1.066 0 1.599.219 1.872a1 1 0 0 0 .782.377c.35 0 .767-.334 1.599-1Z"/></svg>