<svg xmlns="http://www.w3.org/2000/svg" width="31" height="30" fill="none"><path stroke="#fff" stroke-linecap="round" stroke-linejoin="round" stroke-width="2" d="M22.75 18.75H24m-12.5 0H19m-11.25 0H6.5m0-3.75H24M6.5 11.25H24M2.75 18.5v-7c0-1.4 0-2.1.272-2.635.24-.47.622-.853 1.093-1.093C4.65 7.5 5.35 7.5 6.75 7.5h17c1.4 0 2.1 0 2.634.272.47.24.854.622 1.094 1.093.272.534.272 1.234.272 2.631v7.008c0 1.397 0 2.096-.272 2.63-.24.47-.623.854-1.094 1.094-.534.272-1.233.272-2.63.272H6.746c-1.397 0-2.097 0-2.631-.272a2.502 2.502 0 0 1-1.093-1.094C2.75 20.6 2.75 19.9 2.75 18.5Z"/></svg>