<svg width="21" height="19" viewBox="0 0 21 19" fill="none" xmlns="http://www.w3.org/2000/svg">
<path id="Vector" d="M4.42578 16.9203L5.94974 15.7012L5.96095 15.6926C6.27866 15.4384 6.43898 15.3101 6.61785 15.2188C6.77833 15.1368 6.94945 15.0771 7.12598 15.0408C7.32495 15 7.53221 15 7.94824 15H16.6293C17.7472 15 18.3068 15 18.7342 14.7822C19.1105 14.5905 19.4167 14.2842 19.6084 13.9079C19.8262 13.4805 19.8262 12.9215 19.8262 11.8036V4.19691C19.8262 3.07899 19.8262 2.5192 19.6084 2.0918C19.4167 1.71547 19.1099 1.40973 18.7336 1.21799C18.3057 1 17.7465 1 16.6264 1H5.02637C3.90626 1 3.34579 1 2.91797 1.21799C2.54164 1.40973 2.23591 1.71547 2.04416 2.0918C1.82617 2.51962 1.82617 3.08009 1.82617 4.2002V15.6712C1.82617 16.7369 1.82617 17.2696 2.04463 17.5433C2.23462 17.7813 2.52261 17.9198 2.82715 17.9195C3.17732 17.9191 3.59361 17.5861 4.42578 16.9203Z" stroke="#ECECEC" stroke-width="2" stroke-linecap="round" stroke-linejoin="round"/>
</svg>
